<svg
  viewBox="0 0 979.79 504.34"
  xmlns="http://www.w3.org/2000/svg"
>
  <defs>
    <style>
      .fill-brand-500 {
        fill: #e64d33;
      }
    </style>
  </defs>
  <!-- | -->
  <polygon
    class="fill-brand-500"
    points="118.87 133.31 0 252.18 0 .02 168.11 .02 168.11 84.07 118.87 133.31"
  />
  <polygon
    class="fill-brand-500"
    points="0 504.34 0 252.18 168.11 420.28 168.11 504.34 0 504.34"
  />
  <!-- < -->
  <polygon
    class="fill-brand-500"
    points="237.74 252.18 489.88 504.32 252.14 504.32 168.11 420.28 168.11 84.07 252.18 0 489.89 0 237.74 252.18"
  />
  <!-- > -->
  <polygon
    class="fill-brand-500"
    points="979.79 252.18 727.65 504.32 489.91 504.32 742.05 252.18 489.9 0 489.9 0 727.61 0 794.27 66.66 742.05 118.87 860.92 237.74 913.14 185.53 979.79 252.18"
  />
  <!-- . -->
  <rect
    class="fill-brand-500"
    x="839.9"
    y="8.71"
    width="94.26"
    height="168.11"
    transform="translate(194.25 654.45) rotate(-45)"
  />
</svg>